<?xml version="1.0" encoding="utf-8"?>
<!-- Generator: Adobe Illustrator 25.2.0, SVG Export Plug-In . SVG Version: 6.00 Build 0)  -->
<svg version="1.1" id="Layer_1" xmlns="http://www.w3.org/2000/svg" xmlns:xlink="http://www.w3.org/1999/xlink" x="0px" y="0px"
	 viewBox="0 0 1000 1000" style="enable-background:new 0 0 1000 1000;" xml:space="preserve">
<style type="text/css">
	.st0{fill:url(#SVGID_1_);}
	.st1{fill:url(#SVGID_2_);}
	.st2{fill:url(#SVGID_3_);}
	.st3{filter:url(#Adobe_OpacityMaskFilter);}
	.st4{fill:url(#SVGID_5_);}
	.st5{display:none;mask:url(#SVGID_4_);fill-rule:evenodd;clip-rule:evenodd;fill:#56A816;}
	.st6{fill-rule:evenodd;clip-rule:evenodd;fill:#FEFEFE;}
	.st7{filter:url(#Adobe_OpacityMaskFilter_1_);}
	.st8{fill:url(#SVGID_7_);}
	.st9{mask:url(#SVGID_6_);fill-rule:evenodd;clip-rule:evenodd;fill:url(#SVGID_8_);}
	.st10{filter:url(#Adobe_OpacityMaskFilter_2_);}
	.st11{fill:url(#SVGID_10_);}
	.st12{mask:url(#SVGID_9_);fill-rule:evenodd;clip-rule:evenodd;fill:#397010;}
	.st13{fill:url(#SVGID_11_);}
	.st14{fill:url(#SVGID_12_);}
	.st15{fill:url(#SVGID_13_);}
	.st16{fill:url(#SVGID_14_);}
	.st17{fill:url(#SVGID_15_);}
	.st18{fill:url(#SVGID_16_);}
	.st19{fill:url(#SVGID_17_);}
	.st20{fill:url(#SVGID_18_);}
	.st21{fill:url(#SVGID_19_);}
	.st22{fill:url(#SVGID_20_);}
	.st23{fill:url(#SVGID_21_);}
	.st24{filter:url(#Adobe_OpacityMaskFilter_3_);}
	.st25{fill:url(#SVGID_23_);}
	.st26{mask:url(#SVGID_22_);fill-rule:evenodd;clip-rule:evenodd;fill:url(#SVGID_24_);}
	.st27{filter:url(#Adobe_OpacityMaskFilter_4_);}
	.st28{fill:url(#SVGID_26_);}
	.st29{mask:url(#SVGID_25_);fill-rule:evenodd;clip-rule:evenodd;fill:url(#SVGID_27_);}
	.st30{filter:url(#Adobe_OpacityMaskFilter_5_);}
	.st31{fill:url(#SVGID_29_);}
	.st32{mask:url(#SVGID_28_);fill-rule:evenodd;clip-rule:evenodd;fill:url(#SVGID_30_);}
	.st33{filter:url(#Adobe_OpacityMaskFilter_6_);}
	.st34{fill:url(#SVGID_32_);}
	.st35{mask:url(#SVGID_31_);fill-rule:evenodd;clip-rule:evenodd;fill:url(#SVGID_33_);}
	.st36{display:none;}
	.st37{font-family:'Montserrat-ExtraBold';}
	.st38{font-size:92.7583px;}
	.st39{font-family:'Montserrat-Bold';}
	.st40{font-size:29.9801px;}
</style>
<linearGradient id="SVGID_1_" gradientUnits="userSpaceOnUse" x1="624.1246" y1="-83.611" x2="450.5242" y2="540.638">
	<stop  offset="0" style="stop-color:#AA0E2A"/>
	<stop  offset="0.3162" style="stop-color:#9A0C25"/>
	<stop  offset="0.9327" style="stop-color:#700818"/>
	<stop  offset="1" style="stop-color:#6B0816"/>
</linearGradient>
<path class="st0" d="M493.11,261.61c-26.19-28.85-34.93-52.49-38.48-78.55c-2.75,31.59,2.59,52.48,2.59,52.48
	c52.35,166.43-5.69,230.54-5.69,230.54l29.07,27.4l32.95-13.64c24.91-57.94,233.93-276.57,16.05-446.02
	C518.45,113.8,431.7,119.08,493.11,261.61z"/>
<g>
	<linearGradient id="SVGID_2_" gradientUnits="userSpaceOnUse" x1="625.439" y1="949.6581" x2="625.439" y2="949.6581">
		<stop  offset="0" style="stop-color:#E5143C"/>
		<stop  offset="0.1812" style="stop-color:#D51237"/>
		<stop  offset="0.536" style="stop-color:#AB0E2A"/>
		<stop  offset="1" style="stop-color:#6B0816"/>
	</linearGradient>
	<polygon class="st1" points="625.44,949.66 625.44,949.66 625.44,949.66 	"/>
	<linearGradient id="SVGID_3_" gradientUnits="userSpaceOnUse" x1="926.9869" y1="522.7682" x2="-111.6684" y2="522.7682">
		<stop  offset="0" style="stop-color:#E5143C"/>
		<stop  offset="0.1812" style="stop-color:#D51237"/>
		<stop  offset="0.536" style="stop-color:#AB0E2A"/>
		<stop  offset="1" style="stop-color:#6B0816"/>
	</linearGradient>
	<path class="st2" d="M562.27,723.21c-10.39-43.08,0.61-83.55,56.61-90.26c27.12,12.25,60.81,7.87,60.81,7.87
		c-2.63-13.12,38.49-48.99,38.49-48.99c24.06-20.56-1.75-72.61-1.75-72.61c-54.28-38.13-51.39-87.86-107.33-119.3
		c-35.31-19.84-91.37-26.48-141.66-22.78c-9.4-110.59-42.06-277.77-247.42-281.26c39.1,70.66-27.11,126.97,107.58,204.07
		c-38.27-7.34-59.44-21.01-77.93-39.71c16.77,26.92,33.58,40.42,33.58,40.42c55.41,39.74,87.96,77.1,107.05,107.87
		c-11,44.99-36.06,92.32-36.06,92.32c-67.19,159.24,7.72,288.87,174.24,345.01c48.2,23.09,91.13,44.91,96.96,103.81l0,0
		C680.15,834.9,584.24,814.29,562.27,723.21z"/>
</g>
<defs>
	<filter id="Adobe_OpacityMaskFilter" filterUnits="userSpaceOnUse" x="527.56" y="410.21" width="29.65" height="12.18">
		<feColorMatrix  type="matrix" values="1 0 0 0 0  0 1 0 0 0  0 0 1 0 0  0 0 0 1 0"/>
	</filter>
</defs>
<mask maskUnits="userSpaceOnUse" x="527.56" y="410.21" width="29.65" height="12.18" id="SVGID_4_">
	<g class="st3">
		
			<linearGradient id="SVGID_5_" gradientUnits="userSpaceOnUse" x1="-343.8795" y1="846.0935" x2="-374.2427" y2="843.9247" gradientTransform="matrix(1 0 0 1 901.1761 -428.7266)">
			<stop  offset="0" style="stop-color:#FFFFFF"/>
			<stop  offset="1" style="stop-color:#000000"/>
		</linearGradient>
		<rect x="527.56" y="410.21" class="st4" width="29.65" height="12.18"/>
	</g>
</mask>
<path class="st5" d="M557.21,418.22c0,0-18.29,9.59-29.65-0.3c0,0,4.05-5.12,3.75-7.37C531,408.29,557.21,418.22,557.21,418.22
	L557.21,418.22z"/>
<path class="st6" d="M598.58,482.34c-2.54-5.13-9.43-17.32-23.94-26.1c-13.26-8.03-25.95-9.02-31.7-9.12
	c-0.67,1.82-6.63,18.98,2.55,31.65C556.21,493.57,598.58,482.34,598.58,482.34z"/>
<defs>
	<filter id="Adobe_OpacityMaskFilter_1_" filterUnits="userSpaceOnUse" x="220.02" y="95.88" width="267.65" height="306.86">
		<feColorMatrix  type="matrix" values="1 0 0 0 0  0 1 0 0 0  0 0 1 0 0  0 0 0 1 0"/>
	</filter>
</defs>
<mask maskUnits="userSpaceOnUse" x="220.02" y="95.88" width="267.65" height="306.86" id="SVGID_6_">
	<g class="st7">
		
			<linearGradient id="SVGID_7_" gradientUnits="userSpaceOnUse" x1="-707.5681" y1="481.6902" x2="-420.1962" y2="806.8085" gradientTransform="matrix(1 0 0 1 883.4717 -433.6982)">
			<stop  offset="0" style="stop-color:#FFFFFF"/>
			<stop  offset="0.0265" style="stop-color:#F5F5F5"/>
			<stop  offset="0.2402" style="stop-color:#ACACAC"/>
			<stop  offset="0.441" style="stop-color:#6F6F6F"/>
			<stop  offset="0.6229" style="stop-color:#3F3F3F"/>
			<stop  offset="0.7825" style="stop-color:#1D1D1D"/>
			<stop  offset="0.9136" style="stop-color:#080808"/>
			<stop  offset="1" style="stop-color:#000000"/>
		</linearGradient>
		<rect x="220.02" y="95.88" class="st8" width="267.65" height="306.86"/>
	</g>
</mask>
<linearGradient id="SVGID_8_" gradientUnits="userSpaceOnUse" x1="220.0212" y1="249.3075" x2="487.6714" y2="249.3075">
	<stop  offset="0" style="stop-color:#E5143C"/>
	<stop  offset="0.1812" style="stop-color:#D51237"/>
	<stop  offset="0.536" style="stop-color:#AB0E2A"/>
	<stop  offset="1" style="stop-color:#6B0816"/>
</linearGradient>
<path class="st9" d="M220.02,95.88c0,0,179.75,54.02,227,306.86c0,0,10.79-14.98,31.56-23.45c2.85-1.16,5.88-2.2,9.09-3.06
	c-2.99,0.06-5.96,0.15-8.93,0.27c-3.79,0.16-7.56,0.38-11.3,0.65C458.04,266.55,425.38,99.38,220.02,95.88L220.02,95.88z"/>
<defs>
	<filter id="Adobe_OpacityMaskFilter_2_" filterUnits="userSpaceOnUse" x="249.67" y="260.24" width="77.93" height="39.71">
		<feColorMatrix  type="matrix" values="1 0 0 0 0  0 1 0 0 0  0 0 1 0 0  0 0 0 1 0"/>
	</filter>
</defs>
<mask maskUnits="userSpaceOnUse" x="249.67" y="260.24" width="77.93" height="39.71" id="SVGID_9_">
	<g class="st10">
		
			<linearGradient id="SVGID_10_" gradientUnits="userSpaceOnUse" x1="-644.7857" y1="701.9563" x2="-569.116" y2="729.5535" gradientTransform="matrix(1 0 0 1 885.1371 -439.471)">
			<stop  offset="0" style="stop-color:#FFFFFF"/>
			<stop  offset="0.2059" style="stop-color:#CFCFCF"/>
			<stop  offset="0.6709" style="stop-color:#585858"/>
			<stop  offset="1" style="stop-color:#000000"/>
		</linearGradient>
		<rect x="249.67" y="260.24" class="st11" width="77.93" height="39.71"/>
	</g>
</mask>
<path class="st12" d="M327.6,299.95c-38.26-7.34-59.44-21.01-77.93-39.71c5.28,8.48,10.56,15.63,15.33,21.44
	C265,281.67,287.99,298.23,327.6,299.95L327.6,299.95z"/>
<g>
	<linearGradient id="SVGID_11_" gradientUnits="userSpaceOnUse" x1="721.7087" y1="532" x2="721.7098" y2="532">
		<stop  offset="0" style="stop-color:#E5143C"/>
		<stop  offset="0.1812" style="stop-color:#D51237"/>
		<stop  offset="0.536" style="stop-color:#AB0E2A"/>
		<stop  offset="1" style="stop-color:#6B0816"/>
	</linearGradient>
	<polygon class="st13" points="721.71,532 721.71,532 721.71,532 	"/>
	<linearGradient id="SVGID_12_" gradientUnits="userSpaceOnUse" x1="707.1827" y1="512.1784" x2="707.1827" y2="512.1784">
		<stop  offset="0" style="stop-color:#E5143C"/>
		<stop  offset="0.1812" style="stop-color:#D51237"/>
		<stop  offset="0.536" style="stop-color:#AB0E2A"/>
		<stop  offset="1" style="stop-color:#6B0816"/>
	</linearGradient>
	<polygon class="st14" points="707.18,512.18 707.18,512.18 707.18,512.18 	"/>
	<linearGradient id="SVGID_13_" gradientUnits="userSpaceOnUse" x1="732.0746" y1="511.1162" x2="697.178" y2="532.838">
		<stop  offset="0" style="stop-color:#E5143C"/>
		<stop  offset="0.1812" style="stop-color:#D51237"/>
		<stop  offset="0.536" style="stop-color:#AB0E2A"/>
		<stop  offset="1" style="stop-color:#6B0816"/>
	</linearGradient>
	<path class="st15" d="M716.43,519.22c-3.28-2.31-6.35-4.65-9.24-7.04l0,0l-8.7,9.34c0,0,8.6,8.94,23.22,10.48h0
		C718.97,524.33,716.43,519.22,716.43,519.22z"/>
</g>
<g>
	<linearGradient id="SVGID_14_" gradientUnits="userSpaceOnUse" x1="391.2102" y1="763.6088" x2="391.2102" y2="763.6088">
		<stop  offset="0" style="stop-color:#E5143C"/>
		<stop  offset="0.1812" style="stop-color:#D51237"/>
		<stop  offset="0.536" style="stop-color:#AB0E2A"/>
		<stop  offset="1" style="stop-color:#6B0816"/>
	</linearGradient>
	<polygon class="st16" points="391.21,763.61 391.21,763.61 391.21,763.61 	"/>
	<linearGradient id="SVGID_15_" gradientUnits="userSpaceOnUse" x1="588.814" y1="641.6237" x2="588.814" y2="641.6237">
		<stop  offset="0" style="stop-color:#E5143C"/>
		<stop  offset="0.1812" style="stop-color:#D51237"/>
		<stop  offset="0.536" style="stop-color:#AB0E2A"/>
		<stop  offset="1" style="stop-color:#6B0816"/>
	</linearGradient>
	<polygon class="st17" points="588.81,641.62 588.81,641.62 588.81,641.62 	"/>
	<linearGradient id="SVGID_16_" gradientUnits="userSpaceOnUse" x1="619.352" y1="670.3299" x2="386.9988" y2="800.6611">
		<stop  offset="0" style="stop-color:#E5143C"/>
		<stop  offset="0.1812" style="stop-color:#D51237"/>
		<stop  offset="0.536" style="stop-color:#AB0E2A"/>
		<stop  offset="1" style="stop-color:#6B0816"/>
	</linearGradient>
	<path class="st18" d="M476.54,824.52c-18.02-137.14,112.27-182.9,112.28-182.9l0,0c-0.01,0-143.38,9.98-197.6,121.99l0,0
		C413.94,787.27,442.6,807.76,476.54,824.52z"/>
</g>
<g>
	<linearGradient id="SVGID_17_" gradientUnits="userSpaceOnUse" x1="584.2206" y1="877.2301" x2="584.2206" y2="877.2301">
		<stop  offset="0" style="stop-color:#E5143C"/>
		<stop  offset="0.1812" style="stop-color:#D51237"/>
		<stop  offset="0.536" style="stop-color:#AB0E2A"/>
		<stop  offset="1" style="stop-color:#6B0816"/>
	</linearGradient>
	<polygon class="st19" points="584.22,877.23 584.22,877.23 584.22,877.23 	"/>
	<linearGradient id="SVGID_18_" gradientUnits="userSpaceOnUse" x1="588.814" y1="641.6237" x2="588.814" y2="641.6237">
		<stop  offset="0" style="stop-color:#E5143C"/>
		<stop  offset="0.1812" style="stop-color:#D51237"/>
		<stop  offset="0.536" style="stop-color:#AB0E2A"/>
		<stop  offset="1" style="stop-color:#6B0816"/>
	</linearGradient>
	<polygon class="st20" points="588.81,641.62 588.81,641.62 588.81,641.62 	"/>
	<linearGradient id="SVGID_19_" gradientUnits="userSpaceOnUse" x1="607.3094" y1="713.7451" x2="490.5072" y2="857.7878">
		<stop  offset="0" style="stop-color:#E5143C"/>
		<stop  offset="0.1812" style="stop-color:#D51237"/>
		<stop  offset="0.536" style="stop-color:#AB0E2A"/>
		<stop  offset="1" style="stop-color:#6B0816"/>
	</linearGradient>
	<path class="st21" d="M574.53,652.14c3.93-4.04,8.67-7.58,14.29-10.52l0,0c-0.01,0-130.3,45.76-112.28,182.9
		c16.14,7.98,33.48,15.1,51.94,21.33c20.31,9.73,39.68,19.23,55.74,31.38l0,0C498.45,743.82,547.41,676.22,574.53,652.14z"/>
</g>
<g>
	<linearGradient id="SVGID_20_" gradientUnits="userSpaceOnUse" x1="625.439" y1="949.6581" x2="625.439" y2="949.6581">
		<stop  offset="0" style="stop-color:#E5143C"/>
		<stop  offset="0.1812" style="stop-color:#D51237"/>
		<stop  offset="0.536" style="stop-color:#AB0E2A"/>
		<stop  offset="1" style="stop-color:#6B0816"/>
	</linearGradient>
	<polygon class="st22" points="625.44,949.66 625.44,949.66 625.44,949.66 	"/>
	<linearGradient id="SVGID_21_" gradientUnits="userSpaceOnUse" x1="606.6614" y1="735.6138" x2="564.6415" y2="918.4735">
		<stop  offset="0" style="stop-color:#E5143C"/>
		<stop  offset="0.1812" style="stop-color:#D51237"/>
		<stop  offset="0.536" style="stop-color:#AB0E2A"/>
		<stop  offset="1" style="stop-color:#6B0816"/>
	</linearGradient>
	<path class="st23" d="M562.27,723.21c-6.62-27.42-4.56-53.8,12.26-71.07c-27.12,24.07-76.07,91.68,9.69,225.09
		c22.06,16.68,37.85,38.35,41.22,72.43l0,0C680.15,834.9,584.24,814.29,562.27,723.21z"/>
</g>
<defs>
	<filter id="Adobe_OpacityMaskFilter_3_" filterUnits="userSpaceOnUse" x="523.51" y="33.82" width="104.3" height="351.58">
		<feColorMatrix  type="matrix" values="1 0 0 0 0  0 1 0 0 0  0 0 1 0 0  0 0 0 1 0"/>
	</filter>
</defs>
<mask maskUnits="userSpaceOnUse" x="523.51" y="33.82" width="104.3" height="351.58" id="SVGID_22_">
	<g class="st24">
		
			<linearGradient id="SVGID_23_" gradientUnits="userSpaceOnUse" x1="-333.1778" y1="434.0468" x2="-318.0433" y2="816.3262" gradientTransform="matrix(1 0 0 1 900.5173 -434.6719)">
			<stop  offset="0" style="stop-color:#FFFFFF"/>
			<stop  offset="0.0878" style="stop-color:#F8F8F8"/>
			<stop  offset="0.2165" style="stop-color:#E4E4E4"/>
			<stop  offset="0.3703" style="stop-color:#C4C4C4"/>
			<stop  offset="0.5436" style="stop-color:#979797"/>
			<stop  offset="0.7331" style="stop-color:#5E5E5E"/>
			<stop  offset="0.9333" style="stop-color:#191919"/>
			<stop  offset="1" style="stop-color:#000000"/>
		</linearGradient>
		<rect x="523.51" y="33.82" class="st25" width="104.31" height="351.58"/>
	</g>
</mask>
<linearGradient id="SVGID_24_" gradientUnits="userSpaceOnUse" x1="523.5097" y1="209.6091" x2="627.8133" y2="209.6091">
	<stop  offset="0" style="stop-color:#E5143C"/>
	<stop  offset="0.1812" style="stop-color:#D51237"/>
	<stop  offset="0.536" style="stop-color:#AB0E2A"/>
	<stop  offset="1" style="stop-color:#6B0816"/>
</linearGradient>
<path class="st26" d="M529.6,33.82c0,0,41.98,232.28-6.09,343.54c16.87,1.4,33.31,4.05,48.37,8.04
	C627.2,290.6,679.68,150.54,529.6,33.82L529.6,33.82z"/>
<defs>
	<filter id="Adobe_OpacityMaskFilter_4_" filterUnits="userSpaceOnUse" x="220.02" y="95.88" width="225.68" height="302.13">
		<feColorMatrix  type="matrix" values="1 0 0 0 0  0 1 0 0 0  0 0 1 0 0  0 0 0 1 0"/>
	</filter>
</defs>
<mask maskUnits="userSpaceOnUse" x="220.02" y="95.88" width="225.68" height="302.13" id="SVGID_25_">
	<g class="st27">
		
			<linearGradient id="SVGID_26_" gradientUnits="userSpaceOnUse" x1="-622.3124" y1="574.9586" x2="-458.6842" y2="816.7509" gradientTransform="matrix(1 0 0 1 883.4717 -433.9636)">
			<stop  offset="0" style="stop-color:#FFFFFF"/>
			<stop  offset="1" style="stop-color:#000000"/>
		</linearGradient>
		<rect x="220.02" y="95.88" class="st28" width="225.67" height="302.13"/>
	</g>
</mask>
<linearGradient id="SVGID_27_" gradientUnits="userSpaceOnUse" x1="220.0212" y1="246.9449" x2="445.6975" y2="246.9449">
	<stop  offset="0" style="stop-color:#E5143C"/>
	<stop  offset="0.1812" style="stop-color:#D51237"/>
	<stop  offset="0.536" style="stop-color:#AB0E2A"/>
	<stop  offset="1" style="stop-color:#6B0816"/>
</linearGradient>
<path class="st29" d="M220.02,95.88c0,0,166.24,67.53,222.67,302.13l3.01-2.12C396.52,148.92,220.02,95.88,220.02,95.88
	L220.02,95.88z"/>
<defs>
	<filter id="Adobe_OpacityMaskFilter_5_" filterUnits="userSpaceOnUse" x="472.21" y="376.16" width="234.97" height="140.81">
		<feColorMatrix  type="matrix" values="1 0 0 0 0  0 1 0 0 0  0 0 1 0 0  0 0 0 1 0"/>
	</filter>
</defs>
<mask maskUnits="userSpaceOnUse" x="472.21" y="376.16" width="234.97" height="140.81" id="SVGID_28_">
	<g class="st30">
		
			<linearGradient id="SVGID_29_" gradientUnits="userSpaceOnUse" x1="-132.5068" y1="972.7549" x2="-452.1014" y2="792.5712" gradientTransform="matrix(1 0 0 1 897.6359 -427.2823)">
			<stop  offset="0" style="stop-color:#FFFFFF"/>
			<stop  offset="0.1163" style="stop-color:#DCDCDC"/>
			<stop  offset="0.4446" style="stop-color:#7F7F7F"/>
			<stop  offset="0.7111" style="stop-color:#3B3B3B"/>
			<stop  offset="0.9024" style="stop-color:#101010"/>
			<stop  offset="1" style="stop-color:#000000"/>
		</linearGradient>
		<rect x="472.21" y="376.16" class="st31" width="234.98" height="140.82"/>
	</g>
</mask>
<linearGradient id="SVGID_30_" gradientUnits="userSpaceOnUse" x1="472.2087" y1="446.5669" x2="707.1829" y2="446.5669">
	<stop  offset="0" style="stop-color:#E5143C"/>
	<stop  offset="0.1812" style="stop-color:#D51237"/>
	<stop  offset="0.536" style="stop-color:#AB0E2A"/>
	<stop  offset="1" style="stop-color:#6B0816"/>
</linearGradient>
<path class="st32" d="M605.6,405.52c52.18,29.33,53.17,74.56,97.12,111.46l4.47-4.8c-44.9-37.04-45.53-82.72-98.09-112.26
	c-10.73-6.03-23.39-10.85-37.22-14.52c-15.06-3.99-31.49-6.64-48.37-8.04c-11.85-0.98-23.9-1.35-35.84-1.14
	c-3.21,0.86-6.24,1.9-9.09,3.06c-2.24,0.91-4.37,1.9-6.37,2.94c2.06-0.1,4.12-0.19,6.19-0.26c30.8-1.03,62.78,1.79,90.14,9.07
	C582.31,394.71,594.9,399.51,605.6,405.52L605.6,405.52z"/>
<defs>
	<filter id="Adobe_OpacityMaskFilter_6_" filterUnits="userSpaceOnUse" x="265" y="281.67" width="132.3" height="481.93">
		<feColorMatrix  type="matrix" values="1 0 0 0 0  0 1 0 0 0  0 0 1 0 0  0 0 0 1 0"/>
	</filter>
</defs>
<mask maskUnits="userSpaceOnUse" x="265" y="281.67" width="132.3" height="481.93" id="SVGID_31_">
	<g class="st33">
		
			<linearGradient id="SVGID_32_" gradientUnits="userSpaceOnUse" x1="-619.9185" y1="611.2875" x2="-516.826" y2="1125.8591" gradientTransform="matrix(1 0 0 1 885.998 -413.4305)">
			<stop  offset="0" style="stop-color:#FFFFFF"/>
			<stop  offset="1" style="stop-color:#000000"/>
		</linearGradient>
		<rect x="265" y="281.67" class="st34" width="132.3" height="481.93"/>
	</g>
</mask>
<linearGradient id="SVGID_33_" gradientUnits="userSpaceOnUse" x1="265.0009" y1="522.6418" x2="397.2959" y2="522.6418">
	<stop  offset="0" style="stop-color:#E5143C"/>
	<stop  offset="0.1812" style="stop-color:#D51237"/>
	<stop  offset="0.536" style="stop-color:#AB0E2A"/>
	<stop  offset="1" style="stop-color:#6B0816"/>
</linearGradient>
<path class="st35" d="M361.24,500.14c0,0,25.05-47.32,36.05-92.31c-28.94-46.65-87.74-94.08-132.3-126.15
	c10.36,12.65,18.25,18.98,18.25,18.98c55.41,39.74,87.96,77.1,107.05,107.87c-11,44.99-36.06,92.32-36.06,92.32
	c-44.07,104.46-27,196.18,36.97,262.77c0.87-1.8,1.76-3.57,2.67-5.31C333.49,692.11,318.18,602.21,361.24,500.14L361.24,500.14z"/>
<text transform="matrix(1 0 0 1 243.9888 738.6014)" class="st36 st37 st38">COMPANY</text>
<text transform="matrix(1 0 0 1 338.2 783.7352)" class="st36 st39 st40">SLOGAN GOES HERE</text>
</svg>
